<svg fill="none" height="24" viewBox="0 0 24 24" width="24" xmlns="http://www.w3.org/2000/svg"><path d="m11.0429 13.669-.4437.6047zm.9571-3.67419-.5187.54169c.29.2777.7474.2777 1.0374 0zm.9571 3.67419-.4436-.6046zm-.9571.462v-.75zm-.5135-1.0666c-.4179-.3067-.8784-.6897-1.227-1.0928-.36828-.4258-.5095-.7568-.5095-.9714h-1.5c0 .7698.4412 1.4511.8749 1.9526.45329.5241 1.0142.9834 1.4743 1.3209zm-1.7365-2.0642c0-.5761.2626-.8267.4919-.9071.2503-.0877.7139-.0598 1.2394.4434l1.0374-1.08341c-.8244-.78934-1.8608-1.0953-2.77304-.77553-.93321.32714-1.49566 1.22545-1.49566 2.32264zm3.6508 3.2735c.4601-.3375 1.021-.7968 1.4743-1.3209.4337-.5015.8749-1.1828.8749-1.9526h-1.5c0 .2146-.1412.5456-.5095.9714-.3486.4031-.8091.7861-1.227 1.0928zm2.3492-3.2735c0-1.09719-.5625-1.99551-1.4957-2.32264-.9122-.31977-1.9486-.01381-2.773.77553l1.0374 1.08341c.5255-.5032.9891-.5311 1.2394-.4434.2293.0804.4919.331.4919.9071zm-5.1508 3.2735c.3686.2705.7824.6073 1.4008.6073v-1.5c-.0244 0-.0395 0-.0939-.0288-.0859-.0453-.1933-.1219-.4196-.2878zm1.9143-1.2093c-.2263.1659-.3337.2425-.4196.2878-.0544.0288-.0695.0288-.0939.0288v1.5c.6184 0 1.0322-.3368 1.4008-.6073z" fill="#1c274c"/><path d="m19 18h.75zm-14-3.416h.75c0-.2981-.17655-.568-.44972-.6873zm14 0-.3003-.6873c-.2732.1193-.4497.3892-.4497.6873zm-3.25-7.584c0 .41421.3358.75.75.75s.75-.33579.75-.75zm-9 0c0 .41421.33579.75.75.75s.75-.33579.75-.75zm7.25 14.25c-.4142 0-.75.3358-.75.75s.3358.75.75.75zm-4 1.5c.4142 0 .75-.3358.75-.75s-.3358-.75-.75-.75zm-3-18.5c-3.17564 0-5.75 2.57436-5.75 5.75h1.5c0-2.34721 1.90279-4.25 4.25-4.25zm10 1.5c2.3472 0 4.25 1.90279 4.25 4.25h1.5c0-3.17564-2.5744-5.75-5.75-5.75zm-8 15.5c-.96401 0-1.61157-.0016-2.09461-.0665-.46146-.0621-.65896-.1693-.78927-.2996l-1.06066 1.0606c.45547.4555 1.02227.6412 1.65006.7256.60622.0815 1.37287.0799 2.29448.0799zm-4.75-3.25c0 .9216-.00159 1.6883.07991 2.2945.08441.6278.27008 1.1946.72555 1.65l1.06066-1.0606c-.13032-.1303-.23754-.3278-.29958-.7893-.06495-.483-.06654-1.1306-.06654-2.0946zm14 0c0 .964-.0016 1.6116-.0665 2.0946-.0621.4615-.1693.659-.2996.7893l1.0606 1.0606c.4555-.4554.6412-1.0222.7256-1.65.0815-.6062.0799-1.3729.0799-2.2945zm-3.25 4.75c.9216 0 1.6883.0016 2.2945-.0799.6278-.0844 1.1946-.2701 1.65-.7256l-1.0606-1.0606c-.1303.1303-.3278.2375-.7893.2996-.483.0649-1.1306.0665-2.0946.0665zm-8-17c.2137 0 .42326.01571.6277.04593l.21933-1.48388c-.27682-.04091-.55969-.06205-.84703-.06205zm5-4.5c-2.31051 0-4.27058 1.4921-4.97291 3.56312l1.42054.48174c.50218-1.48084 1.90397-2.54486 3.55237-2.54486zm-4.97291 3.56312c-.17987.5304-.27709 1.09806-.27709 1.68688h1.5c0-.42285.0697-.82788.19763-1.20514zm9.97291-.56312c-.2873 0-.5702.02114-.847.06205l.2193 1.48388c.2044-.03022.414-.04593.6277-.04593zm-5-1.5c1.6484 0 3.0502 1.06402 3.5524 2.54486l1.4205-.48174c-.7023-2.07102-2.6624-3.56312-4.9729-3.56312zm3.5524 2.54486c.1279.37726.1976.78229.1976 1.20514h1.5c0-.58882-.0972-1.15648-.2771-1.68688zm-9.8024 12.70514v-3.416h-1.5v3.416zm-.44972-4.1033c-1.50259-.6565-2.55028-2.1551-2.55028-3.8967h-1.5c0 2.359 1.4205 4.3846 3.44972 5.2712zm12.94972.6873v3.416h1.5v-3.416zm3-4.584c0 1.7416-1.0477 3.2402-2.5503 3.8967l.6006 1.3745c2.0292-.8866 3.4497-2.9122 3.4497-5.2712zm-5.5-3.5v.5h1.5v-.5zm-9 0v.5h1.5v-.5zm8.25 14.75h-1v1.5h1zm-5 0h-1v1.5h1z" fill="#1c274c"/><path d="m5 18h8m6 0h-2" stroke="#1c274c" stroke-linecap="round" stroke-linejoin="round" stroke-width="1.5"/></svg>